<?xml version="1.0" encoding="UTF-8"?>
<svg width="171.06mm" height="222.87mm" version="1.1" viewBox="0 0 171.06 222.87" xmlns="http://www.w3.org/2000/svg" xmlns:xlink="http://www.w3.org/1999/xlink">
 <defs>
  <marker id="Arrow2Mend" overflow="visible" orient="auto">
   <path transform="scale(-.6)" d="m8.7186 4.0337-10.926-4.0177 10.926-4.0177c-1.7455 2.3721-1.7354 5.6175-6e-7 8.0354z" fill="context-stroke" fill-rule="evenodd" stroke="context-stroke" stroke-linejoin="round" stroke-width=".625"/>
  </marker>
  <linearGradient id="linearGradient2025" x1="-71.352" x2="90.895" y1="511.96" y2="371.33" gradientUnits="userSpaceOnUse">
   <stop stop-color="#3771c8" offset="0"/>
   <stop stop-color="#5fd38d" offset="1"/>
  </linearGradient>
 </defs>
 <g transform="translate(77.483 -329.64)">
  <g>
   <path transform="scale(.26458)" d="m-787.91 1214.4c-4.4031-0.079-8.4738 0.3685-12.719 1.2949-47.083 10.274-165.36 60.643-289.46 123.27-22.196 11.2-22.149 11.109-21.394 42.865 1.9813 83.422 14.186 175.45 32.672 246.36 22.678 86.989 65.867 181.81 117.47 257.9 41.944 61.847 90.663 114.71 137.16 148.83 12.371 9.0787 33.3 21.822 35.84 21.822 0.48476 0 4.3133-1.9469 8.5078-4.3262 40.768-23.125 101.13-82.536 147.14-144.81 54.796-74.178 100.03-164.07 126.38-251.13 22.054-72.871 35.409-157.68 40.244-255.58 1.4203-28.759 1.1898-40.554-0.88086-45.252-3.8901-8.8256-5.6686-10.134-31.184-22.92-108.66-54.451-211.54-98.849-262.61-113.32-11.548-3.2732-19.812-4.8649-27.15-4.9961zm0.33398 206.16c3.1994 0.01 6.2772 0.2194 8.7852 0.6562 34.992 6.095 55.962 41.378 44.715 75.234-3.1862 9.5915-7.7002 16.265-16.795 24.83-7.8339 7.3778-9.1021 9.539-9.3848 15.998-0.12812 2.9285 1.8075 28.052 5.9219 76.85 6.7 79.464 6.4772 74.548 3.5547 78.522-0.81857 1.1131-2.4508 2.4349-3.9024 3.1582l-2.4961 1.2442h-64.48l-2.5918-1.3477c-3.0653-1.5925-5.5297-4.879-5.9766-7.9726-0.17046-1.1797 2.469-33.51 6.25-76.59 5.3632-61.106 6.4565-75.003 6.0644-77.07-0.96294-5.0777-2.4449-7.3252-8.9726-13.621-4.3597-4.2048-7.0099-7.2468-9.2598-10.625-15.647-23.495-12.087-54.602 8.4551-73.856 7.0199-6.5797 15.476-11.218 25.166-13.805 3.9431-1.0526 9.6149-1.6162 14.947-1.6054z" fill="#008000"/>
   <path d="m8.1886 329.64c-1.165-0.0209-2.242 0.0975-3.3652 0.34261-12.457 2.7184-43.752 16.045-76.588 32.615-5.8726 2.9635-5.8602 2.9394-5.6606 11.341 0.52422 22.072 3.7533 46.42 8.6444 65.182 6.0003 23.016 17.427 48.104 31.08 68.235 11.098 16.364 23.988 30.351 36.289 39.379 3.2731 2.4021 8.8107 5.7738 9.4826 5.7738 0.12826 0 1.1412-0.51512 2.251-1.1446 10.786-6.1184 26.758-21.838 38.93-38.315 14.498-19.626 26.467-43.409 33.438-66.445 5.8351-19.28 9.3687-41.72 10.648-67.622 0.37579-7.6091 0.31479-10.73-0.23306-11.973-1.0292-2.3351-1.4998-2.6813-8.2507-6.0642-28.75-14.407-55.971-26.154-69.483-29.984-3.0553-0.86604-5.2419-1.2872-7.1835-1.3219zm0.0884 54.546c0.84652 3e-3 1.6608 0.058 2.3244 0.17361 9.2582 1.6126 14.806 10.948 11.831 19.906-0.84301 2.5378-2.0374 4.3034-4.4437 6.5696-2.0727 1.952-2.4082 2.5239-2.483 4.2328-0.0339 0.77483 0.47823 7.422 1.5668 20.333 1.7727 21.025 1.7138 19.724 0.94051 20.775-0.21658 0.29451-0.64844 0.64423-1.0325 0.83561l-0.66043 0.32919h-17.06l-0.68574-0.35658c-0.81104-0.42135-1.4631-1.2909-1.5813-2.1094-0.0451-0.31213 0.65325-8.8661 1.6536-20.264 1.419-16.168 1.7083-19.845 1.6046-20.392-0.25478-1.3435-0.64688-1.9381-2.374-3.6039-1.1535-1.1125-1.8547-1.9174-2.45-2.8112-4.14-6.2164-3.1979-14.447 2.2371-19.541 1.8574-1.7409 4.0946-2.968 6.6585-3.6525 1.0433-0.2785 2.5439-0.42762 3.9548-0.42476z" fill="url(#linearGradient2025)"/>
   <path d="m-493.01 304.67c0.74731 0.0222 1.544 0.12467 2.7724 0.31832 7.9465 1.2527 21.266 6.0599 41.61 15.018 12.546 5.5244 37.038 17.244 42.527 20.35 4.3428 2.4572 7.6912 7.5899 8.6398 13.244 0.20921 1.247 0.20889 3.2524-3e-3 8.7566-1.1124 28.921-4.851 53.427-11.482 75.266-7.6699 25.26-21.111 51.471-37.26 72.659-7.2698 9.5385-16.034 19.168-23.748 26.092-7.8812 7.074-16.145 12.739-21.262 14.574-1.8101 0.64937-2.7658 0.63132-4.7656-0.0899h-5.3e-4c-8.8487-3.1915-23.504-15.035-35.758-28.896-17.685-20.005-32.187-44.703-42.474-72.338-8.01-21.518-12.861-45.991-14.861-74.965-0.50223-7.2771-0.88651-17.72-0.73792-20.063 0.26443-4.1698 2.0692-8.2516 4.9837-11.271 1.8637-1.9309 3.6633-2.9541 14.664-8.3421 36.602-17.927 63.469-28.774 74.679-30.15 1.0315-0.1266 1.7296-0.18444 2.4768-0.16227z" fill="#ae3333"/>
  </g>
  <g fill-rule="evenodd" stroke-width=".26458">
   <rect x="-346.98" y="180.1" width="80.549" height="80.549" ry="8.2615"/>
   <rect x="-343.68" y="175.97" width="80.549" height="80.549" ry="8.2615" fill="#0f0"/>
   <rect x="-234.83" y="71.668" width="80.549" height="80.549" ry="8.2615"/>
   <rect x="-231.53" y="67.538" width="80.549" height="80.549" ry="8.2615" fill="#0f0"/>
  </g>
  <path d="m-316.76 171.79c27.32-51.433 29.295-54.301 77.628-75.585" fill="none" marker-end="url(#Arrow2Mend)" stroke="#000" stroke-width="1.9627"/>
  <path x="-389.46582" y="123.72293" width="29.04294" height="28.752508" ry="0" d="m-389.47 123.72h29.043v28.753h-29.043z" stroke-width="1.5875"/>
  <path d="m0 0"/>
 </g>
</svg>
